<svg preserveAspectRatio="none" overflow="visible" style="display: block;" width="40.322" height="40.322" viewBox="0 0 40.322 40.322" fill="none" xmlns="http://www.w3.org/2000/svg">
<g id="basil:linkedin-outline">
<rect width="40.322" height="40.322" rx="7.02232" fill="white" fill-opacity="0.2"/>
<path id="Vector" fill-rule="evenodd" clip-rule="evenodd" d="M11.2627 8C10.3974 8 9.5675 8.34375 8.95562 8.95562C8.34375 9.5675 8 10.3974 8 11.2627C8 12.128 8.34375 12.9579 8.95562 13.5698C9.5675 14.1817 10.3974 14.5254 11.2627 14.5254C12.128 14.5254 12.9579 14.1817 13.5698 13.5698C14.1817 12.9579 14.5254 12.128 14.5254 11.2627C14.5254 10.3974 14.1817 9.5675 13.5698 8.95562C12.9579 8.34375 12.128 8 11.2627 8ZM9.77966 11.2627C9.77966 10.8694 9.93591 10.4922 10.214 10.214C10.4922 9.93591 10.8694 9.77966 11.2627 9.77966C11.656 9.77966 12.0333 9.93591 12.3114 10.214C12.5895 10.4922 12.7458 10.8694 12.7458 11.2627C12.7458 11.656 12.5895 12.0333 12.3114 12.3114C12.0333 12.5895 11.656 12.7458 11.2627 12.7458C10.8694 12.7458 10.4922 12.5895 10.214 12.3114C9.93591 12.0333 9.77966 11.656 9.77966 11.2627ZM8 16.0085C8 15.7725 8.09375 15.5461 8.26062 15.3793C8.4275 15.2124 8.65383 15.1186 8.88983 15.1186H13.6356C13.8716 15.1186 14.0979 15.2124 14.2648 15.3793C14.4317 15.5461 14.5254 15.7725 14.5254 16.0085V31.4322C14.5254 31.6682 14.4317 31.8945 14.2648 32.0614C14.0979 32.2282 13.8716 32.322 13.6356 32.322H8.88983C8.65383 32.322 8.4275 32.2282 8.26062 32.0614C8.09375 31.8945 8 31.6682 8 31.4322V16.0085ZM9.77966 16.8983V30.5423H12.7458V16.8983H9.77966ZM16.3051 16.0085C16.3051 15.7725 16.3988 15.5461 16.5657 15.3793C16.7326 15.2124 16.9589 15.1186 17.1949 15.1186H21.9407C22.1766 15.1186 22.403 15.2124 22.5699 15.3793C22.7367 15.5461 22.8305 15.7725 22.8305 16.0085V16.5234L23.3466 16.3015C24.2365 15.9214 25.1805 15.6832 26.1442 15.5956C29.4366 15.2966 32.322 17.883 32.322 21.2051V31.4322C32.322 31.6682 32.2282 31.8945 32.0614 32.0614C31.8945 32.2282 31.6682 32.322 31.4322 32.322H26.6864C26.4504 32.322 26.2241 32.2282 26.0572 32.0614C25.8903 31.8945 25.7966 31.6682 25.7966 31.4322V23.1271C25.7966 22.7338 25.6403 22.3565 25.3622 22.0784C25.0841 21.8003 24.7069 21.644 24.3135 21.644C23.9202 21.644 23.543 21.8003 23.2649 22.0784C22.9867 22.3565 22.8305 22.7338 22.8305 23.1271V31.4322C22.8305 31.6682 22.7367 31.8945 22.5699 32.0614C22.403 32.2282 22.1766 32.322 21.9407 32.322H17.1949C16.9589 32.322 16.7326 32.2282 16.5657 32.0614C16.3988 31.8945 16.3051 31.6682 16.3051 31.4322V16.0085ZM18.0847 16.8983V30.5423H21.0508V23.1271C21.0508 22.2618 21.3946 21.4319 22.0064 20.82C22.6183 20.2081 23.4482 19.8644 24.3135 19.8644C25.1789 19.8644 26.0087 20.2081 26.6206 20.82C27.2325 21.4319 27.5762 22.2618 27.5762 23.1271V30.5423H30.5423V21.2051C30.5423 18.9461 28.5717 17.1617 26.3067 17.3681C25.5286 17.4387 24.7664 17.6309 24.0478 17.9376L22.2918 18.691C22.1564 18.7492 22.0086 18.7728 21.8618 18.7597C21.715 18.7467 21.5737 18.6973 21.4507 18.6162C21.3276 18.535 21.2267 18.4246 21.1569 18.2947C21.0871 18.1649 21.0506 18.0198 21.0508 17.8724V16.8983H18.0847Z" fill="white"/>
</g>
</svg>
